<svg width="218" height="62" viewBox="0 0 218 62" fill="none" xmlns="http://www.w3.org/2000/svg">
<rect width="218" height="61" fill="#0056B8"/>
<path d="M65.4179 45.7541H60.3105V14.1525C60.4169 14.0461 62.7365 13.8971 71.1636 14.1525C81.6975 14.7909 80.7399 24.6864 80.1015 27.8785C79.5908 30.4321 76.9094 32.5602 75.6326 33.305L83.2936 45.7541H77.2286L70.206 34.2626H65.4179V45.7541Z" fill="white"/>
<path d="M65.4178 29.4746V18.9407H71.802C72.5681 18.9407 74.4621 20.6431 75.3133 21.4943V26.2825C75.3133 27.8147 72.5468 29.049 71.1636 29.4746H65.4178Z" fill="#0056B8"/>
<path d="M91.5927 45.7542H86.4854L100.211 13.5142L113.937 45.7542H108.192L105.319 39.0509H94.1464L91.5927 45.7542Z" fill="white"/>
<path d="M165.011 45.7542H159.903L173.629 13.5142L187.355 45.7542H181.61L178.737 39.0509H167.564L165.011 45.7542Z" fill="white"/>
<path d="M96.0618 34.9012L99.8923 25.325L104.042 34.9012H96.0618Z" fill="#0056B8"/>
<path d="M169.48 34.9012L173.31 25.325L177.46 34.9012H169.48Z" fill="#0056B8"/>
<path d="M120.322 14.1526H115.533V29.7938H116.491L115.533 45.7543H120.322L120.363 45.3266L121.918 29.1554H120.322V14.1526Z" fill="white"/>
<path d="M125.11 13.8335V45.7544H130.217V29.1555L140.112 43.5199H141.389L152.242 28.1979V45.7544H156.711V13.8335L141.389 35.5397H140.112L125.11 13.8335Z" fill="white"/>
<path d="M197.89 13.8333H191.506L201.082 29.1553L190.867 45.7541H196.932L203.955 33.6242L211.616 45.7541H218L207.785 29.1553L218 13.8333H211.616L204.912 25.3248L197.89 13.8333Z" fill="white"/>
<g clip-path="url(#clip0_524_3)">
<rect x="-8" y="-5" width="67.0338" height="72.384" fill="#0056B8"/>
<path d="M17.8122 29.6463C27.5798 29.5374 34.0035 36.6334 34.9317 46.1776C35.1571 50.6706 33.5237 54.508 30.6261 57.2417C27.7257 59.978 23.5326 61.6314 18.6096 61.691C14.559 61.3798 10.0912 59.5075 6.62467 56.5509C3.1542 53.5908 0.733435 49.5867 0.682716 45.0338C0.580981 35.9064 7.93389 29.7564 17.8122 29.6463Z" stroke="#94D60B"/>
<path d="M28.4585 35.6453C30.9478 38.34 32.4285 42.182 32.8671 46.6951C33.0792 50.9243 31.6192 54.487 28.9803 57.01C26.3385 59.5357 22.4809 61.0509 17.8496 61.1071C10.1992 60.5189 2.33296 54.1443 2.23724 45.5514C2.18904 41.2276 3.78559 37.7371 6.52064 35.3088C9.26289 32.874 13.1876 31.4746 17.8391 31.4228C22.4563 31.3713 25.9773 32.9593 28.4585 35.6453Z" stroke="#94D60B"/>
<path d="M31.1352 47.1303L31.1352 47.143L31.1359 47.1557C31.513 54.573 24.6345 60.5326 16.3878 60.6348C9.70048 60.1176 4.19785 53.8671 4.11188 46.1497C4.02699 38.5337 10.8192 32.4585 19.0524 32.3667C23.1251 32.3213 26.1204 33.9426 28.1125 36.5782C30.1184 39.232 31.1352 42.9544 31.1352 47.1303Z" stroke="#94D60B"/>
<path d="M18.3732 28.1196C17.9722 28.9217 17.87 29.7745 17.5019 30.5842C17.3562 30.9047 17.3022 31.2596 17.1161 31.5675C16.9865 31.7817 16.7563 31.9511 16.6991 32.2085C16.5489 32.8842 16.5808 32.6297 16.5808 32.0343C16.5808 31.3871 16.6803 31.1796 17.0912 30.6962C17.1592 30.6162 17.3568 29.8447 17.365 29.688C17.3738 29.5199 17.4199 28.7703 17.533 28.6797C17.6999 28.5463 17.4614 29.0275 17.4272 29.1154C17.3374 29.3465 17.3787 29.5731 17.2779 29.8C17.1126 30.1718 17.0554 30.6261 16.8609 30.9762C16.7166 31.2359 16.0548 32.8247 16.4688 32.8247C17.2089 32.8247 17.3212 33.2866 17.6388 33.8765C18.1556 34.8361 18.9924 35.2847 19.9042 35.812C20.9012 36.3885 21.8606 37.0939 22.8044 37.7538C23.8072 38.4549 24.8769 38.9197 25.966 39.4715C26.5269 39.7557 27.0388 40.1237 27.6091 40.3926C28.2645 40.7016 28.7383 40.3046 29.3517 40.1001C29.627 40.0083 29.8243 39.7458 30.0238 39.5462C30.2557 39.3143 30.4832 39.2054 30.7209 39.0109C30.9694 38.8076 31.1321 38.5249 31.3059 38.2517C31.8293 37.4292 32.6696 36.8965 33.4717 36.4095C33.6118 36.3244 34.8647 35.6777 33.9945 35.5195C32.9986 35.3384 32.2015 35.8514 31.3681 36.2974C30.3822 36.8251 29.7751 37.8795 28.7916 38.4259C28.6476 38.5059 28.4232 38.792 28.4555 38.4259C28.5044 37.8718 30.0119 37.3886 30.4159 37.1314C31.2902 36.5751 31.9127 35.8181 32.8245 35.4012C33.0995 35.2755 34.6549 35.3182 34.4862 35.8245C34.4659 35.8853 34.1666 35.4751 34.1563 35.4635C33.9471 35.2257 33.6683 35.0552 33.4406 34.8349C32.8341 34.2479 32.0542 33.9427 31.3744 33.447C30.056 32.4857 28.6054 31.3441 26.9992 30.9202C25.5316 30.533 24.1356 29.9367 22.68 29.5261C21.97 29.3259 21.5177 28.9216 20.8876 28.5739C20.4503 28.3327 20.063 28.2634 19.6926 27.9205C19.1852 27.4506 18.6407 28.5855 18.2363 28.8167C17.6664 29.1423 16.9531 30.7138 17.3712 31.3061C18.1347 32.3877 19.4191 30.7827 19.7424 30.1361C19.839 29.943 20.41 28.9949 20.0536 28.8167C19.3912 28.4854 18.6658 29.9028 18.4417 30.2543C18.3481 30.4012 16.9676 33.4295 17.8816 33.1483C18.7668 32.8759 19.1111 29.4414 18.9085 29.4639C17.9228 29.5734 17.3116 32.2022 18.0371 32.7998C19.369 33.8966 21.3812 30.1548 21.7091 29.2648C22.327 27.5875 19.0617 32.7324 19.898 34.3121C20.1177 34.7271 20.887 34.4335 21.1303 34.2437C21.8719 33.6648 22.5689 32.6657 22.8293 31.7542C23.073 30.9015 22.2041 33.4355 22.1198 34.3183C22.0522 35.0268 21.8893 36.5818 22.9102 36.7331C23.9956 36.8939 24.5669 35.8391 25.0885 35.0652C25.6033 34.3013 26.215 33.5525 26.215 32.6006C26.215 31.9485 26.066 33.8632 26.0532 33.9947C25.9524 35.0266 25.6058 36.3047 26.1901 37.2559C27.2847 39.0378 29.8265 35.3602 30.5155 34.7478C31.2746 34.073 32.0071 34.8073 32.3515 35.6253C32.4286 35.8085 31.2481 35.5271 31.169 35.5133C30.4404 35.3856 29.3467 35.23 28.6547 35.588C28.4035 35.7179 28.1992 36.197 28.4742 36.4032C29.1389 36.9018 30.8682 36.2184 31.4366 35.8618C31.5471 35.7925 31.9332 35.4261 31.5486 35.4261C31.1189 35.4261 30.7054 35.6714 30.3724 35.9178C30.219 36.0313 28.8098 37.4206 29.4886 37.119C30.6446 36.6052 31.5407 35.6501 32.1523 34.5797C32.1535 34.5777 33.0404 35.1824 33.1606 35.2892C33.8089 35.8655 33.1625 35.6081 32.7 35.451C31.7375 35.1242 31.2157 35.8105 30.7084 36.5713C30.4228 36.9998 31.0387 36.8879 31.3246 36.8389C31.5611 36.7984 32.8803 35.972 32.4137 35.9614C31.2679 35.9353 30.3821 36.7809 29.5633 37.4177C28.986 37.8667 29.8589 37.4824 30.0861 37.3492C30.1961 37.2848 31.1461 36.5614 30.7209 36.7144C30.0683 36.9494 29.3772 37.4107 28.7667 37.7476C28.4699 37.9113 28.4302 38.2819 28.1443 38.401C27.7205 38.5776 27.3162 38.4259 26.8311 38.4259C26.5879 38.4259 26.5092 38.7328 26.5635 38.9363C26.6773 39.363 27.009 39.2787 27.3352 39.4093C27.8253 39.6053 28.3684 39.1354 28.6795 38.8242C28.7306 38.7731 29.0803 38.2268 28.7667 38.3388C28.3755 38.4785 27.9078 38.9101 27.9078 39.3595C27.9078 39.5341 28.775 39.4207 28.8974 39.3657C29.2168 39.2219 29.6587 38.8033 29.8869 38.538C29.9594 38.4537 30.4545 37.6926 30.223 37.9654C29.8464 38.4092 29.4092 38.559 28.9036 38.8118C28.5112 39.008 29.5449 37.9316 29.7376 37.816C30.1132 37.5906 30.6491 37.4902 30.9636 37.1999C31.0679 37.1036 31.3717 36.8678 31.5051 36.8576C32.032 36.817 32.2774 36.6686 32.7187 36.5215C33.0203 36.421 33.1347 36.0734 33.3846 36.0734" stroke="#0056B8" stroke-width="3" stroke-linecap="round"/>
<path d="M30.7314 37.9692C30.5236 38.1037 30.3166 38.2123 30.0967 38.3223C29.9416 38.3998 29.9984 38.4241 30.1323 38.3116C30.3293 38.1461 30.4952 37.9766 30.628 37.7553C30.7222 37.5983 30.7249 38.0621 30.7278 38.1154C30.7519 38.5616 30.648 38.4395 30.7599 38.0976C30.8506 37.8205 31.0877 37.6063 31.1807 37.3274" stroke="#0056B8" stroke-width="3" stroke-linecap="round"/>
<path d="M29.0146 40.6693C29.2667 40.4464 29.4517 40.1772 29.6603 39.9154C29.9187 39.591 30.2392 39.2798 30.5286 38.9818C30.8524 38.6481 31.185 38.3592 31.4868 38.0011C31.7697 37.6654 32.0734 37.3331 32.398 37.0367C32.6933 36.7671 33.0038 36.3993 33.3562 36.2011C33.5043 36.1178 33.6235 36.0356 33.7954 36.0356" stroke="#0056B8" stroke-width="3" stroke-linecap="round"/>
<path d="M33.6117 36.7344C33.2878 36.9287 32.9693 37.1286 32.6637 37.3514C31.3177 38.3326 30.0112 39.395 28.7288 40.4569C28.1187 40.962 27.515 41.4816 26.8818 41.9565" stroke="#0056B8" stroke-width="3" stroke-linecap="round"/>
<path d="M26.8818 41.9563C27.6346 41.6657 28.2957 41.2137 28.9535 40.7509C30.3388 39.7763 31.6762 38.7355 33.0274 37.7149C33.7944 37.1356 34.5689 36.564 35.4586 36.1867C35.7726 36.0536 36.078 35.9532 36.3699 35.7781" stroke="#0056B8" stroke-width="3" stroke-linecap="round"/>
<path d="M17.3939 28.313C16.0873 32.2624 14.7287 36.1962 13.3527 40.1219C12.9342 41.316 12.489 42.5006 12.1207 43.7116C12.0752 43.8613 12.0388 44.1053 11.9512 44.2367" stroke="#0056B8" stroke-width="3" stroke-linecap="round"/>
<path d="M16.8789 32.5418C16.9524 32.4959 17.0628 32.4562 17.0628 32.3579" stroke="#0056B8" stroke-width="3" stroke-linecap="round"/>
<path d="M50.6938 0.507385C52.0786 0.3815 52.3199 0.979454 52.2674 1.29417L38.1223 21.0974L37.948 21.4358H42.9834V21.7505C35.4303 29.9855 19.9416 46.7964 18.4358 48.1864C16.3901 50.0746 15.6034 50.7041 14.974 50.232C14.4704 49.8543 16.2328 41.997 17.177 38.1156L20.3241 23.4814H16.3901C15.8866 23.4814 17.9637 10.788 19.0652 4.44128C29.0311 3.18243 49.3091 0.63327 50.6938 0.507385Z" fill="#94D60B"/>
</g>
<defs>
<clipPath id="clip0_524_3">
<rect width="55" height="62" fill="white"/>
</clipPath>
</defs>
</svg>
